<svg aria-hidden="true" style="position:absolute;width:0;height:0;overflow:hidden" xmlns="http://www.w3.org/2000/svg"><defs><symbol id="icon-pause" viewBox="0 0 24 24"><path d="M14.016 5.016H18v13.969h-3.984V5.016zM6 18.984V5.015h3.984v13.969H6z"/></symbol><symbol id="icon-clear" viewBox="0 0 24 24"><path d="M18.984 6.422 13.406 12l5.578 5.578-1.406 1.406L12 13.406l-5.578 5.578-1.406-1.406L10.594 12 5.016 6.422l1.406-1.406L12 10.594l5.578-5.578z"/></symbol><symbol id="icon-check" viewBox="0 0 24 24"><path d="M9 16.172 19.594 5.578 21 6.984l-12 12-5.578-5.578L4.828 12z"/></symbol><symbol id="icon-launch" viewBox="0 0 24 24"><path d="M14.016 3H21v6.984h-2.016V6.421l-9.797 9.797-1.406-1.406 9.797-9.797h-3.563V2.999zm4.968 15.984V12H21v6.984q0 .797-.609 1.406t-1.406.609H5.016q-.844 0-1.43-.586T3 18.983V5.014q0-.844.586-1.43t1.43-.586H12v2.016H5.016v13.969h13.969z"/></symbol><symbol id="icon-local_restaurant" viewBox="0 0 24 24"><path d="m14.859 11.531-1.453 1.453 6.891 6.891-1.406 1.406L12 14.39l-6.891 6.891-1.406-1.406 9.75-9.75Q12.89 9 13.289 7.5t1.57-2.672q1.453-1.453 3.234-1.664t2.859.867.867 2.883-1.664 3.258q-1.172 1.172-2.672 1.547t-2.625-.188zm-6.75 1.828L3.89 9.14Q2.718 7.968 2.718 6.327T3.89 3.514l7.031 6.984z"/></symbol><symbol id="icon-star" viewBox="0 0 32 32"><path d="M31.881 12.557a2.303 2.303 0 0 0-1.844-1.511l-8.326-1.238-3.619-7.514C17.711 1.505 16.896 1 16 1s-1.711.505-2.092 1.294l-3.619 7.514-8.327 1.238A2.3 2.3 0 0 0 .12 12.557a2.207 2.207 0 0 0 .537 2.285l6.102 6.092-1.415 8.451a2.224 2.224 0 0 0 .948 2.203 2.351 2.351 0 0 0 2.449.131L16 27.811l7.26 3.908a2.367 2.367 0 0 0 2.449-.131 2.225 2.225 0 0 0 .947-2.203l-1.416-8.451 6.104-6.092c.603-.603.81-1.485.537-2.285zm-8.293 6.806a2.216 2.216 0 0 0-.627 1.934l1.416 8.451-7.26-3.906a2.361 2.361 0 0 0-2.235 0l-7.26 3.906 1.416-8.451a2.212 2.212 0 0 0-.626-1.934L2.31 13.271l8.326-1.24a2.306 2.306 0 0 0 1.743-1.268L16 3.251l3.62 7.513a2.31 2.31 0 0 0 1.742 1.268l8.328 1.24-6.102 6.091z"/></symbol><symbol id="icon-fire" viewBox="0 0 32 32"><path d="M22 9c-.062 2.675-2.07 4.934-2.07 4.934C19.93 8.958 16 5 16 5s-.053 2.962-2.043 5.948C11.967 3.981 5.995 0 5.995 0 8.981 10.948 5 14.93 5 22.892 5 27.563 8.954 32 15 32c8.957 0 10.689-3.288 11.615-6.993C27.891 19.906 25.98 13.976 22 9zm2.676 15.521C24.033 27.09 23.307 30 15 30c-5.008 0-8-3.614-8-7.108 0-2.676.488-4.873 1.004-7.199.656-2.949 1.328-5.968 1.037-9.961 3.084 4.269 4.182 9.925 4.182 9.925s2.871-4.031 3.643-5.903C17.457 10.957 18 15 18 19c0 0 2.656-2.188 4.648-5.478 2.098 3.762 2.854 7.695 2.028 10.999zm-2.244-7.726.186 1.035c.416 2.318.183 5.058-.592 6.982a.499.499 0 0 1-.651.277.499.499 0 0 1-.277-.65c.584-1.449.83-3.489.674-5.353-1.004 1.122-2.269 2.291-4.972 3.575l-.506.239-.182-.528c-.362-1.05-.727-2.111-.885-3.59a43.726 43.726 0 0 1-1.865 2.743l-.508.692-.352-.784c-.861-1.925-1.517-3.428-2.037-4.75-.481 1.545-.84 3.332-.84 6.941a.5.5 0 0 1-1 0c0-4.709.625-6.523 1.285-8.444l.52-1.51.479 1.35c.515 1.451 1.193 3.05 2.152 5.212.632-.893 1.056-1.565 1.568-2.376l1.518-2.378v1.709c0 1.924.346 3.181.727 4.323 2.659-1.338 3.655-2.502 4.708-3.73l.85-.985z"/></symbol><symbol id="icon-twitter-square" viewBox="0 0 24 28"><path d="M20 9.531a6.887 6.887 0 0 1-1.891.531 3.313 3.313 0 0 0 1.453-1.828 6.547 6.547 0 0 1-2.094.797A3.253 3.253 0 0 0 15.077 8a3.28 3.28 0 0 0-3.281 3.281c0 .25.016.516.078.75a9.324 9.324 0 0 1-6.781-3.437 3.33 3.33 0 0 0-.453 1.656c0 1.141.531 2.141 1.422 2.734-.547-.016-1.062-.172-1.563-.406v.031c0 1.594 1.203 2.922 2.703 3.219-.281.078-.5.125-.797.125-.203 0-.406-.031-.609-.063a3.3 3.3 0 0 0 3.063 2.281A6.607 6.607 0 0 1 4 19.53a9.351 9.351 0 0 0 5.031 1.469c6.031 0 9.344-5 9.344-9.344 0-.141 0-.281-.016-.422A6.31 6.31 0 0 0 20 9.53zM24 6.5v15c0 2.484-2.016 4.5-4.5 4.5h-15A4.502 4.502 0 0 1 0 21.5v-15C0 4.016 2.016 2 4.5 2h15C21.984 2 24 4.016 24 6.5z"/></symbol><symbol id="icon-facebook-square" viewBox="0 0 24 28"><path d="M19.5 2C21.984 2 24 4.016 24 6.5v15c0 2.484-2.016 4.5-4.5 4.5h-2.938v-9.297h3.109l.469-3.625h-3.578v-2.312c0-1.047.281-1.75 1.797-1.75L20.265 9V5.766c-.328-.047-1.469-.141-2.781-.141-2.766 0-4.672 1.687-4.672 4.781v2.672H9.687v3.625h3.125V26H4.499a4.502 4.502 0 0 1-4.5-4.5v-15c0-2.484 2.016-4.5 4.5-4.5h15z"/></symbol><symbol id="icon-instagram" viewBox="0 0 24 28"><path d="M16 14c0-2.203-1.797-4-4-4s-4 1.797-4 4 1.797 4 4 4 4-1.797 4-4zm2.156 0c0 3.406-2.75 6.156-6.156 6.156S5.844 17.406 5.844 14 8.594 7.844 12 7.844s6.156 2.75 6.156 6.156zm1.688-6.406c0 .797-.641 1.437-1.437 1.437S16.97 8.39 16.97 7.594s.641-1.437 1.437-1.437 1.437.641 1.437 1.437zM12 4.156c-1.75 0-5.5-.141-7.078.484-.547.219-.953.484-1.375.906s-.688.828-.906 1.375c-.625 1.578-.484 5.328-.484 7.078s-.141 5.5.484 7.078c.219.547.484.953.906 1.375s.828.688 1.375.906c1.578.625 5.328.484 7.078.484s5.5.141 7.078-.484c.547-.219.953-.484 1.375-.906s.688-.828.906-1.375c.625-1.578.484-5.328.484-7.078s.141-5.5-.484-7.078c-.219-.547-.484-.953-.906-1.375s-.828-.688-1.375-.906C17.5 4.015 13.75 4.156 12 4.156zM24 14c0 1.656.016 3.297-.078 4.953-.094 1.922-.531 3.625-1.937 5.031s-3.109 1.844-5.031 1.937c-1.656.094-3.297.078-4.953.078s-3.297.016-4.953-.078c-1.922-.094-3.625-.531-5.031-1.937S.173 20.875.08 18.953C-.014 17.297.002 15.656.002 14s-.016-3.297.078-4.953c.094-1.922.531-3.625 1.937-5.031s3.109-1.844 5.031-1.937c1.656-.094 3.297-.078 4.953-.078s3.297-.016 4.953.078c1.922.094 3.625.531 5.031 1.937s1.844 3.109 1.937 5.031C24.016 10.703 24 12.344 24 14z"/></symbol><symbol id="icon-leaf" viewBox="0 0 32 32"><path d="M31.604 4.203C28.143 1.58 22.817.014 17.357.014 10.603.014 5.1 2.372 2.258 6.483.923 8.414.185 10.7.064 13.279c-.108 2.296.278 4.835 1.146 7.567C4.175 11.959 12.454 4.999 22 4.999c0 0-8.932 2.351-14.548 9.631-.003.004-.078.097-.207.272a21.055 21.055 0 0 0-2.846 5.166 30.771 30.771 0 0 0-2.4 11.931h4s-.607-3.819.449-8.212c1.747.236 3.308.353 4.714.353 3.677 0 6.293-.796 8.231-2.504 1.736-1.531 2.694-3.587 3.707-5.764 1.548-3.325 3.302-7.094 8.395-10.005a1 1 0 0 0 .108-1.666z"/></symbol><symbol id="icon-infinite" viewBox="0 0 32 32"><path d="M24.5 23.5a7.448 7.448 0 0 1-5.303-2.197L16 18.107l-3.196 3.196c-1.417 1.417-3.3 2.197-5.303 2.197s-3.887-.78-5.304-2.197C.78 19.886 0 18.003 0 16s.78-3.887 2.197-5.304c1.417-1.417 3.3-2.197 5.304-2.197s3.887.78 5.303 2.197L16 13.892l3.196-3.196c1.417-1.417 3.3-2.197 5.303-2.197s3.887.78 5.303 2.197c1.417 1.417 2.197 3.3 2.197 5.304s-.78 3.887-2.197 5.303a7.448 7.448 0 0 1-5.303 2.197zm-3.196-4.303c.854.853 1.989 1.324 3.196 1.323s2.342-.47 3.196-1.324c.854-.854 1.324-1.989 1.324-3.196s-.47-2.342-1.324-3.196c-.854-.854-1.989-1.324-3.196-1.324s-2.342.47-3.196 1.324L18.108 16l3.196 3.197zM7.5 11.48c-1.207 0-2.342.47-3.196 1.324S2.98 14.793 2.98 16s.47 2.342 1.324 3.196S6.293 20.52 7.5 20.52a4.49 4.49 0 0 0 3.196-1.324L13.892 16l-3.196-3.196A4.49 4.49 0 0 0 7.5 11.48z"/></symbol></defs></svg>